<mxfile host="app.diagrams.net" agent="Mozilla/5.0 (Windows NT 10.0; Win64; x64) AppleWebKit/537.36 (KHTML, like Gecko) Chrome/136.0.0.0 Safari/537.36" version="27.0.5">
  <diagram name="第 1 页" id="AgB3RJSJ4xE1Xi_FvPlZ">
    <mxGraphModel dx="1426" dy="777" grid="1" gridSize="10" guides="1" tooltips="1" connect="1" arrows="1" fold="1" page="1" pageScale="1" pageWidth="827" pageHeight="1169" math="0" shadow="0">
      <root>
        <mxCell id="0" />
        <mxCell id="1" parent="0" />
        <mxCell id="NsKqy3ca0zXfOUK5nELY-1" value="&lt;font style=&quot;font-size: 22px;&quot;&gt;client A&lt;/font&gt;" style="rounded=0;whiteSpace=wrap;html=1;" vertex="1" parent="1">
          <mxGeometry x="250" y="210" width="120" height="40" as="geometry" />
        </mxCell>
        <mxCell id="NsKqy3ca0zXfOUK5nELY-6" value="" style="group" vertex="1" connectable="0" parent="1">
          <mxGeometry x="510" y="150" width="380" height="340" as="geometry" />
        </mxCell>
        <mxCell id="NsKqy3ca0zXfOUK5nELY-4" value="" style="rounded=0;whiteSpace=wrap;html=1;align=left;" vertex="1" parent="NsKqy3ca0zXfOUK5nELY-6">
          <mxGeometry y="10" width="270" height="290" as="geometry" />
        </mxCell>
        <mxCell id="NsKqy3ca0zXfOUK5nELY-5" value="&lt;font style=&quot;font-size: 21px;&quot;&gt;server&lt;/font&gt;" style="text;html=1;align=center;verticalAlign=middle;resizable=0;points=[];autosize=1;strokeColor=none;fillColor=none;" vertex="1" parent="NsKqy3ca0zXfOUK5nELY-6">
          <mxGeometry y="10" width="80" height="40" as="geometry" />
        </mxCell>
        <mxCell id="NsKqy3ca0zXfOUK5nELY-7" value="" style="rounded=0;whiteSpace=wrap;html=1;dashed=1;" vertex="1" parent="NsKqy3ca0zXfOUK5nELY-6">
          <mxGeometry x="20" y="80" width="220" height="130" as="geometry" />
        </mxCell>
        <mxCell id="NsKqy3ca0zXfOUK5nELY-9" value="&lt;font style=&quot;font-size: 22px;&quot;&gt;socket B&lt;/font&gt;" style="rounded=0;whiteSpace=wrap;html=1;" vertex="1" parent="NsKqy3ca0zXfOUK5nELY-6">
          <mxGeometry x="40" y="160" width="120" height="40" as="geometry" />
        </mxCell>
        <mxCell id="NsKqy3ca0zXfOUK5nELY-12" value="&lt;font style=&quot;font-size: 22px;&quot;&gt;socket A&lt;/font&gt;" style="rounded=0;whiteSpace=wrap;html=1;" vertex="1" parent="NsKqy3ca0zXfOUK5nELY-6">
          <mxGeometry x="40" y="90" width="120" height="40" as="geometry" />
        </mxCell>
        <mxCell id="NsKqy3ca0zXfOUK5nELY-13" value="&lt;font style=&quot;font-size: 21px;&quot;&gt;room&lt;/font&gt;" style="text;html=1;align=center;verticalAlign=middle;resizable=0;points=[];autosize=1;strokeColor=none;fillColor=none;" vertex="1" parent="NsKqy3ca0zXfOUK5nELY-6">
          <mxGeometry x="170" y="80" width="70" height="40" as="geometry" />
        </mxCell>
        <mxCell id="NsKqy3ca0zXfOUK5nELY-14" value="&lt;font style=&quot;font-size: 22px;&quot;&gt;socket C&lt;/font&gt;" style="rounded=0;whiteSpace=wrap;html=1;" vertex="1" parent="NsKqy3ca0zXfOUK5nELY-6">
          <mxGeometry x="40" y="230" width="120" height="40" as="geometry" />
        </mxCell>
        <mxCell id="NsKqy3ca0zXfOUK5nELY-10" value="&lt;font style=&quot;font-size: 22px;&quot;&gt;client B&lt;/font&gt;" style="rounded=0;whiteSpace=wrap;html=1;" vertex="1" parent="1">
          <mxGeometry x="250" y="280" width="120" height="40" as="geometry" />
        </mxCell>
        <mxCell id="NsKqy3ca0zXfOUK5nELY-11" value="&lt;font style=&quot;font-size: 22px;&quot;&gt;client C&lt;/font&gt;" style="rounded=0;whiteSpace=wrap;html=1;" vertex="1" parent="1">
          <mxGeometry x="250" y="350" width="120" height="40" as="geometry" />
        </mxCell>
        <mxCell id="NsKqy3ca0zXfOUK5nELY-17" value="" style="shape=flexArrow;endArrow=classic;html=1;rounded=0;entryX=1;entryY=0.5;entryDx=0;entryDy=0;" edge="1" parent="1" target="NsKqy3ca0zXfOUK5nELY-1">
          <mxGeometry width="50" height="50" relative="1" as="geometry">
            <mxPoint x="500" y="280" as="sourcePoint" />
            <mxPoint x="370" y="220" as="targetPoint" />
          </mxGeometry>
        </mxCell>
        <mxCell id="NsKqy3ca0zXfOUK5nELY-18" value="" style="shape=flexArrow;endArrow=classic;html=1;rounded=0;entryX=1;entryY=0.5;entryDx=0;entryDy=0;" edge="1" parent="1" target="NsKqy3ca0zXfOUK5nELY-10">
          <mxGeometry width="50" height="50" relative="1" as="geometry">
            <mxPoint x="500" y="300" as="sourcePoint" />
            <mxPoint x="440" y="200" as="targetPoint" />
          </mxGeometry>
        </mxCell>
      </root>
    </mxGraphModel>
  </diagram>
</mxfile>
